<?xml version="1.0" encoding="utf-8"?>
<!-- Generator: Adobe Illustrator 16.0.3, SVG Export Plug-In . SVG Version: 6.00 Build 0)  -->
<!DOCTYPE svg PUBLIC "-//W3C//DTD SVG 1.1 Basic//EN" "http://www.w3.org/Graphics/SVG/1.1/DTD/svg11-basic.dtd">
<svg version="1.1" baseProfile="basic" id="Capa_1" xmlns="http://www.w3.org/2000/svg" xmlns:xlink="http://www.w3.org/1999/xlink"
	 x="0px" y="0px" width="100px" height="9.3px" viewBox="0 0 100 9.3" xml:space="preserve">
<g>
	<path fill="#DD3B62" d="M8.87,9.142H6.981C6.462,8.471,5.947,7.806,5.436,7.146S4.41,5.818,3.891,5.144h1.848l0.72,0.941
		c0.326-0.477,0.488-1.017,0.488-1.621c0-0.751-0.264-1.406-0.79-1.964C5.641,1.973,5.023,1.709,4.303,1.709
		C3.547,1.709,2.92,1.973,2.42,2.5C1.917,3.015,1.665,3.67,1.665,4.464c0,0.906,0.313,1.623,0.941,2.149
		c0.453,0.368,0.968,0.57,1.545,0.604L5.25,8.612C5.103,8.64,4.952,8.659,4.797,8.671s-0.32,0.018-0.494,0.018
		c-1.208,0-2.214-0.415-3.016-1.244c-0.806-0.852-1.208-1.846-1.208-2.98c0-0.791,0.19-1.509,0.569-2.156
		c0.387-0.651,0.903-1.166,1.546-1.546c0.646-0.375,1.35-0.563,2.109-0.563c1.174,0,2.156,0.415,2.946,1.244
		c0.829,0.84,1.243,1.848,1.243,3.021c0,1.1-0.353,2.055-1.057,2.864L8.87,9.142z"/>
	<path fill="#DD3B62" d="M12.246,8.74c-0.566,0-1.069-0.14-1.511-0.418c-0.446-0.26-0.759-0.599-0.941-1.018
		C9.592,6.891,9.492,6.211,9.492,5.266V0.437h1.545v5.247c0,0.458,0.037,0.771,0.111,0.941c0.217,0.403,0.569,0.604,1.057,0.604
		c0.264,0,0.504-0.063,0.721-0.191c0.198-0.112,0.333-0.264,0.407-0.453c0.078-0.179,0.116-0.554,0.116-1.127V0.437H15v4.829
		c0,0.787-0.05,1.352-0.151,1.696c-0.082,0.307-0.256,0.606-0.523,0.901c-0.271,0.294-0.575,0.511-0.912,0.65
		C13.088,8.665,12.699,8.74,12.246,8.74z"/>
	<path fill="#DD3B62" d="M23.397,8.502H21.77L21.166,6.84h-3.318l-0.68,1.662h-1.586l3.132-8.117h1.552L20.3,0.501l-0.79,2.04
		L18.411,5.33h2.191l-0.529-1.319l0.796-2.04L23.397,8.502z"/>
	<path fill="#DD3B62" d="M29.765,8.514h-1.656l-1.476-2.76h-0.529v2.76h-1.545V0.437h2.603c0.713,0,1.327,0.254,1.842,0.761
		c0.507,0.507,0.761,1.122,0.761,1.842v0.076c0,1.092-0.527,1.898-1.581,2.417L29.765,8.514z M27.011,4.249
		c0.302,0,0.567-0.116,0.796-0.349c0.225-0.225,0.337-0.5,0.337-0.825c0-0.322-0.112-0.589-0.337-0.802
		c-0.221-0.217-0.486-0.325-0.796-0.325h-0.907v2.301H27.011z"/>
	<path fill="#DD3B62" d="M38.743,8.502h-1.627L36.511,6.84h-3.318l-0.68,1.662h-1.586l3.132-8.117h1.552l0.035,0.116l-0.79,2.04
		L33.757,5.33h2.191l-0.529-1.319l0.796-2.04L38.743,8.502z"/>
	<path fill="#DD3B62" d="M46.396,8.502h-1.476L41.41,3.18v5.322h-1.505V0.385h1.47l3.469,5.363V0.385h1.552V8.502z"/>
	<path fill="#DD3B62" d="M50.573,8.514h-1.581V1.948h-1.435V0.437h4.492v1.511h-1.476V8.514z"/>
	<path fill="#DD3B62" d="M54.722,8.502h-1.511V0.385h1.511V8.502z"/>
	<path fill="#DD3B62" d="M62.374,8.502h-1.476l-3.51-5.322v5.322h-1.505V0.385h1.47l3.47,5.363V0.385h1.551V8.502z"/>
	<path fill="#DD3B62" d="M67.952,8.502h-4.416V0.385h4.416v1.511h-2.905v1.813h2.905v1.47h-2.905v1.813h2.905V8.502z"/>
	<path fill="#DD3B62" d="M70.962,8.502h-1.848V0.385h1.848c1.17,0,2.038,0.151,2.604,0.453C74.139,1.128,74.617,1.607,75,2.273
		c0.353,0.624,0.529,1.391,0.529,2.301c0,0.612-0.101,1.18-0.303,1.702c-0.189,0.527-0.478,0.967-0.865,1.319
		c-0.356,0.333-0.748,0.571-1.174,0.715C72.762,8.438,72.02,8.502,70.962,8.502z M71.381,6.991c0.716,0,1.231-0.075,1.545-0.227
		c0.303-0.158,0.554-0.436,0.756-0.831c0.201-0.372,0.302-0.837,0.302-1.395c0-1.762-0.932-2.644-2.795-2.644H70.66v5.096H71.381z"
		/>
	<path fill="#DD3B62" d="M77.522,6.806c0.264,0,0.477,0.089,0.639,0.267c0.151,0.136,0.227,0.338,0.227,0.604
		c0,0.225-0.075,0.425-0.227,0.599c-0.162,0.179-0.375,0.268-0.639,0.268c-0.229,0-0.43-0.089-0.604-0.268
		c-0.151-0.174-0.227-0.374-0.227-0.599c0-0.267,0.075-0.469,0.227-0.604C77.093,6.895,77.294,6.806,77.522,6.806z"/>
	<path fill="#DD3B62" d="M83.322,8.502h-3.771V0.385h1.505v6.642h2.267V8.502z"/>
	<path fill="#DD3B62" d="M85.994,8.502h-1.511V0.385h1.511V8.502z"/>
	<path fill="#DD3B62" d="M91.497,8.514h-1.471l-2.87-8.077h1.586l2.83,7.96L91.497,8.514z M92.136,6.812l-0.79-2.226l1.511-4.149
		h1.58L92.136,6.812z"/>
	<path fill="#DD3B62" d="M100.016,8.502H95.6V0.385h4.416v1.511H97.11v1.813h2.905v1.47H97.11v1.813h2.905V8.502z"/>
</g>
</svg>
